<svg xmlns="http://www.w3.org/2000/svg" fill='#fff' id="Layer_1" data-name="Layer 1" viewBox="0 0 328.9 384"><path d="M153.2,384c-6.3-1-12.6-1.7-18.8-2.9-41-7.7-74.5-28.2-100-61C10.3,289.1-1,253.7.1,214.3c.2-9.4,5.8-14.9,15.4-14.9h143c.1-1.5.3-2.6.3-3.6,0-14,0-28,.1-42,0-2.5-.7-3.9-3-5s-7.1-4.8-11.1-6.1-7.6,2.5-11.5,3.7c-38.5,11.7-78.5-14.3-83-54.2-.9-7.8,2.5-13.7,9.7-16.8,36.3-15.3,79.7,7.8,87.2,46.6a12.9,12.9,0,0,0,.4,1.9c1.7,9,1.8,9.1,10.9,13.1.1-1.2.3-2.2.3-3.2,0-12.4-.1-24.8.1-37.1a5.8,5.8,0,0,0-2.8-5.2c-29.3-21.5-29.5-66.4-.5-88.3A65.5,65.5,0,0,1,161.4,0h6c16,8.3,24.4,22,26.8,39.1,3.1,21.9-4.7,39.7-22.3,53.2a3.8,3.8,0,0,0-1.7,2.5c-.1,14-.1,27.9-.1,42.6,3.5-2,6.6-3.5,9.5-5.4.7-.5.9-1.9,1-2.9,3.4-30,24.4-52.4,54.1-57.6a61.8,61.8,0,0,1,34.5,4.1c6.9,2.9,10.3,8.9,9.5,16.2a63.3,63.3,0,0,1-17.4,37.3c-2.5,2.8-5.9,3-8.3.9s-2.4-5.5,0-8.3l2.2-2.6A53.1,53.1,0,0,0,267.5,91c.3-2.6-.6-4.3-3.1-5.3-31.1-12.4-64.9,7-71.4,37.6a7.3,7.3,0,0,1,.2.8l3.4-1.8,40.7-23.2a21.1,21.1,0,0,1,3.3-1.8c2.9-1.2,5.2-.2,6.8,2.3s1.1,5.1-1.1,7.1a35.2,35.2,0,0,1-3.8,2.4l-41.3,23.6-3.7,2.3c7.6,2.5,14.8,3.6,22.2,2.6a88.5,88.5,0,0,0,12.4-2.7c3.9-.9,6.9.3,7.9,3.5s-.7,6-4.3,7.2c-16.6,5.2-32.9,5.3-48.7-3-.8-.4-2-.1-3,0l-.7.3c-4.3,2.6-10.2,4.1-12.4,7.9s-.8,9.7-.8,14.6c-.1,9.9.1,19.8-.1,29.7-.1,3.4.9,4.4,4.4,4.3H311.9c11.6,0,16.7,4.9,17,16.5,2,82.8-58.5,154.4-140.7,166.4L175.7,384ZM298.7,210.6c-.2,7.4-.5,14.4-.7,21.4-.4,9.5-3.3,18.4-6.9,27a5.2,5.2,0,0,1-6.8,3.2c-2.9-.9-4.4-3.7-3.6-6.9a47.6,47.6,0,0,1,1.9-5.3c5.3-12.6,4-25.9,4.9-39H193.9a17.3,17.3,0,0,0,6.2,2.8c8.5,1.6,16.9,3.5,25.4,4.4,13.9,1.4,19.1,6,20.9,19.7a37.1,37.1,0,0,1-4.2,23.2,44.3,44.3,0,0,0-4.9,31.8c.9,4.6,1.8,9.3,2.9,13.9.7,2.9,2.4,3.8,4.8,1.7s5.2-4.1,7.1-6.6c5.9-7.8,11.4-15.8,17-23.7,2.3-3.3,5.4-4.3,8.3-2.5s3.5,5,1.3,8.2c-4.9,7.4-9.7,14.9-15.1,21.9a70.7,70.7,0,0,1-11.7,11.5c-9.4,7-18.3,4.3-22.2-6.7-1.7-5-2.5-10.4-3.5-15.7-2.5-13.1-1.6-25.8,5.5-37.6.7-1.3,1.2-2.8,1.8-4.1a29.9,29.9,0,0,0,1.3-17c-.6-3.5-2.3-5.8-6.2-6.2-7.2-.8-14.5-1.5-21.6-2.8-11-2-21.6-5.4-29.5-14.1a7.1,7.1,0,0,0-5.8-2.5H76.9l-4.3.3c7.1,3.8,12.5,8,15.6,14.4s7.9,10.4,14.2,13.2a137.9,137.9,0,0,1,12.6,6.6c6.2,3.9,9.5,9.9,8.2,17.1a83,83,0,0,1-5.8,18.1c-4.4,10.3-9.6,20.3-14.1,30.5a24.1,24.1,0,0,0,.8,21.7c5,9.5,8.7,19.1,5.6,29.9,20.7,9.2,53.1,12.8,78,8.6,47.5-8.1,83.9-32.8,108.8-74,15.1-25.1,21.9-52.5,21.1-81.9-.1-2.5-.5-4.5-3.6-4.5ZM99.1,358c1.4-6.4-.5-11.7-3.3-16.6-7.3-12.7-7.6-25.6-1.4-38.7,4.5-9.4,9.1-18.7,13.4-28.1a84.1,84.1,0,0,0,4.2-11.9c1.1-4.1-.7-7.1-4.3-9s-8.3-4.1-12.4-6.2c-6.2-3.2-12-7.1-15-13.6S70.7,222,63.3,219c-5.4-2.3-10.7-4.8-16.1-7a12.8,12.8,0,0,0-5-1.3c-8.4-.2-16.9-.1-25.4-.1-5,0-5.4.4-5.5,5.3-.6,45.3,15.6,83.6,48.1,115A142.5,142.5,0,0,0,99.1,358Zm32.3-223.1-3.7-2.2-39-22.3c-1.8-1.1-3.7-2.1-5.5-3.3a5.3,5.3,0,0,1-1.7-7.5c1.7-2.6,4.2-3.5,7.1-2.1a34.1,34.1,0,0,1,3.3,1.7l40.3,23.1,3.5,1.9c.1-.8.2-1,.2-1.2-6.4-30.8-42.2-49.6-71.1-37.4-2.7,1.1-3.7,2.8-3.4,5.8,2.8,25.5,25.5,46.1,51.6,46.5A50,50,0,0,0,131.4,134.9Zm27.4-56V74c0-10.3,0-20.7.1-31,0-4.6,2.9-7.2,6.8-6.3s4.4,3.6,4.4,6.8V78.3c.9-.3,1.1-.3,1.3-.5,18.1-17.3,15.7-51.3-4.8-65.4a4.5,4.5,0,0,0-4.2-.1C140.1,29.2,140.2,61.3,158.8,78.9Z"></path></svg>