<svg xmlns="http://www.w3.org/2000/svg" fill='#2A7D2E' id="Layer_1" data-name="Layer 1" viewBox="0 0 267.4 365.1"><path d="M26.1,228.4H15c-5.4-.1-8.6-3.2-8.7-8.7q-.1-13.5,0-27c0-6.3,3.3-9.4,9.9-9.4h104c1.7-8.4,3.3-16.5,4.8-24.5a7.1,7.1,0,0,0-.2-2.5c-2.9-8.6-14.9-26.4-21-31.7-6.5,3.8-12.6,8.2-19.2,11.1-17.5,7.5-33,3-46.8-9.1S16.9,101.8,9.9,87.1C6.7,80.3,4.1,73.3,1.5,66.3c-1.4-3.6.1-6.5,3.7-7.3,18.4-4.2,37-7.1,56-4.2,29.9,4.6,47.7,25,47.7,55a12.2,12.2,0,0,0,3.4,8.5c6.1,7.6,11.8,15.4,17.7,23.3.7-1.7,1.5-4,2.5-6.1,2.6-5.9,5.5-11.8,8-17.7a9.8,9.8,0,0,0,.5-6.3c-5.2-17.4-6.4-34.9-.2-52.3,7.4-20.4,22.5-33.5,41.6-42.4S219.6,4.6,239.2,2.5c7-.7,14-1.1,20.9-1.5,4.3-.2,6.6,1.9,6.3,6-2.1,30.5-7.2,60.3-21.6,87.7-7.4,14-17.2,25.8-31.8,32.8s-31.4,5.8-47.2,1.1c-5.3-1.7-10.5-3.9-16-6a169.6,169.6,0,0,0-18.6,60.7h97.4c8,0,10.8,2.8,10.8,10.9v24.4c0,6.8-3,9.7-9.8,9.8H219.5c-1.6,8.9-3.2,17.6-4.7,26.3q-9.5,51.9-18.8,103.9c-.8,4.3-2.2,5.5-6.6,5.5H56.3c-4.4,0-5.9-1.2-6.7-5.4L27.1,233.3Zm10.9.3a20.2,20.2,0,0,0,.3,2.7c7.1,39.7,14.3,79.4,21.3,119.1.5,2.8,1.7,3.3,4.2,3.3q60-.2,120,0c2.9,0,3.8-.8,4.3-3.6,5.8-32.9,11.8-65.6,17.7-98.4,1.4-7.6,2.7-15.2,4.1-23.1ZM155,113.5c6.6,2.3,12.5,4.9,18.6,6.5,23.1,6.2,41.8-.5,55.7-20.1a95.5,95.5,0,0,0,8.6-14.5c8.6-17.8,13-36.8,15.8-56.3.8-5.7,1.3-11.5,2-17.6l-9.6.8c-20.1,1.8-39.9,5.1-58.5,13.5-21.9,10-37.2,25.4-40.1,50.6a70.1,70.1,0,0,0,2.1,26c1.2-1.7,2.1-2.8,2.9-4.1a179.8,179.8,0,0,1,36.8-38.6c3.2-2.5,6.3-2.6,8.3-.2s1.5,5.5-1.9,8.3-9.2,7.7-13.5,11.9A159.4,159.4,0,0,0,155,113.5ZM16.8,217.8h212V194H16.8ZM13,67.9c5.5,14.2,12,27.5,21,39.5,5,6.5,10.5,12.4,17.6,16.6,13.9,8.3,33.7,4.8,43.9-7.9a118.5,118.5,0,0,0-33.4-21c-4.2-1.7-5.6-4.2-4.3-7.3s4.4-4.2,8.2-2.1c9.7,5.3,19.3,10.9,28.9,16.5l3.5,2.4C96,85.9,87.1,73.1,69.5,67.4S32,64.1,13,67.9Z" transform="translate(0 0)"></path><path d="M122.8,365.1H56.3c-4.9,0-6.8-1.6-7.6-6.3-4.5-24.5-8.9-49.1-13.3-73.6l-9.3-51.7-.6-3a4.3,4.3,0,0,1-.2-1.1H15c-6-.2-9.6-3.8-9.7-9.7-.1-9.3-.1-18.5,0-27,0-6.9,3.7-10.4,10.9-10.4H119.4l1-4.8q1.8-9.6,3.6-18.9a4.7,4.7,0,0,0-.2-2c-2.7-7.9-13.9-25-20.2-30.8l-5.3,3.3a97.7,97.7,0,0,1-13.4,7.5c-16.6,7.1-32.7,4-47.8-9.2C26.2,117.8,17.5,105.5,9,87.5,6,81.1,3.5,74.3,1,67.8L.6,66.6A6.4,6.4,0,0,1,.7,61a6.4,6.4,0,0,1,4.2-3c17.6-3.9,36.6-7.2,56.5-4.1,30.4,4.6,48.5,25.5,48.5,55.9,0,3.4,1.2,5.5,3.1,7.9,4.5,5.4,8.7,11.1,12.8,16.6l3.9,5.3c.6-1.4,1.2-3,1.9-4.5s1.9-4.2,2.9-6.3c1.7-3.7,3.5-7.6,5.1-11.4a10.1,10.1,0,0,0,.5-5.6c-5.9-19.5-6-36.9-.2-52.9C146.7,40,160.4,26,182,15.9,197.9,8.6,216,4,239.1,1.5c7.1-.7,14.3-1.1,21-1.5q3.8-.2,5.7,1.8c1.2,1.2,1.7,3,1.6,5.3-1.7,25-5.7,57.7-21.7,88.1-8.4,16-19,26.9-32.3,33.2s-28.8,6.9-47.9,1.1c-3.7-1.1-7.2-2.5-10.9-4l-4.3-1.6a167.2,167.2,0,0,0-18,58.4h96.3c8.6,0,11.8,3.2,11.8,11.9v24.4c0,7.3-3.5,10.7-10.8,10.8h-9.2l-1.4,7.5-3.3,18-6.9,38.4c-3.9,21.9-7.9,43.7-11.8,65.5-.9,4.7-2.8,6.3-7.6,6.3ZM26.1,227.4h.8v.8c.2.7.3,1.3.4,1.8s.5,2.2.7,3.1l9.3,51.7,13.2,73.7c.7,3.7,1.8,4.6,5.7,4.6H189.4c3.9,0,4.9-.9,5.6-4.7q6-32.7,11.8-65.4l7-38.5c1-6,2.1-11.9,3.2-18l1.7-9.1h10.9c6.3-.1,8.8-2.5,8.8-8.9V194.2c0-7.5-2.4-9.9-9.8-9.9H130l.2-1.1A169.5,169.5,0,0,1,149,122.1l.4-.7.8.3,5.2,2c3.6,1.4,7.1,2.8,10.7,3.9,18.8,5.7,33.1,5.4,46.5-1s23.1-16.7,31.3-32.3c12.4-23.5,19-50.4,21.5-87.3a4.8,4.8,0,0,0-1.1-3.8c-.8-.9-2.2-1.3-4.1-1.2-6.7.4-13.8.8-20.9,1.5-22.9,2.4-40.8,7-56.4,14.2-21.1,9.8-34.6,23.5-41.1,41.9-5.6,15.6-5.6,32.5.2,51.6a10.4,10.4,0,0,1-.6,6.9c-1.6,3.9-3.4,7.8-5.1,11.5-1,2.1-2,4.2-2.9,6.3s-1.3,3-1.8,4.4L131,142l-.7,1.6-1.1-1.4-5-6.7c-4.1-5.5-8.3-11.2-12.7-16.5-2.1-2.7-3.6-5.2-3.6-9.2,0-29.3-17.5-49.4-46.8-54-19.5-3-38.3.3-55.7,4.2a4.4,4.4,0,0,0-3,2,5.2,5.2,0,0,0,0,3.9l.5,1.2c2.4,6.5,4.9,13.2,7.9,19.5,8.4,17.8,16.9,29.9,27.6,39.3,14.5,12.7,29.9,15.7,45.8,8.9a100.3,100.3,0,0,0,13-7.4l6.1-3.7.6-.4.5.5c6.5,5.6,18.4,23.6,21.3,32.2a7.9,7.9,0,0,1,.3,3c-1.2,6.2-2.4,12.5-3.7,18.9l-1.2,6.4H16.2c-6.1,0-8.9,2.6-8.9,8.4-.1,8.5-.1,17.7,0,27,.1,4.8,2.8,7.6,7.7,7.7H26.1ZM182.8,354.8h0c-37.5-.1-76.7-.1-120,0h0c-2.8,0-4.6-.7-5.2-4.1-5.3-29.8-10.7-60.1-16-89.4l-5.3-29.7a11.1,11.1,0,0,1-.2-1.9c0-.3-.1-.6-.1-.9v-1.1H210l-1.4,8.5c-1,5.3-1.9,10.5-2.8,15.7-1.6,9-3.3,18-4.9,27-4.2,23.4-8.6,47.6-12.8,71.4C187.5,353.6,186.1,354.8,182.8,354.8Zm-60.7-2.1h60.8c2.2,0,2.8-.5,3.2-2.8,4.2-23.8,8.6-48.1,12.8-71.5,1.7-9,3.3-17.9,4.9-26.9,1-5.2,1.9-10.4,2.8-15.7l1.1-6.2H38.1c0,.6.1,1.1.1,1.6l5.4,29.6c5.3,29.3,10.7,59.6,16,89.4.4,2.2,1,2.5,3.2,2.5ZM229.8,218.8H15.8V193h214Zm-212-2h210V195H17.8Zm50.8-87.3a34.7,34.7,0,0,1-17.5-4.6c-6.3-3.8-12-9.1-17.9-16.9-8-10.6-14.7-23.2-21.1-39.8l-.4-1.1,1.1-.2c18.2-3.6,37.6-6.6,57-.4,17.4,5.6,27.1,18,29.6,38l.3,2.3-1.9-1.3-1.4-1.1-2-1.4-7-4c-7.1-4.1-14.5-8.4-21.9-12.5a5.6,5.6,0,0,0-4.4-.7,4,4,0,0,0-2.3,2.3c-.7,1.7-1.1,4.1,3.7,6.1a121.1,121.1,0,0,1,33.7,21.2l.7.6-.6.8C89.6,125,79.1,129.5,68.6,129.5ZM14.4,68.6c6.2,15.8,12.7,28,20.4,38.2,5.8,7.5,11.2,12.8,17.3,16.4,13.3,7.9,32,4.8,42-6.9A117.7,117.7,0,0,0,61.7,96c-5.9-2.5-5.9-6.1-4.8-8.6a5.5,5.5,0,0,1,3.5-3.5,7.6,7.6,0,0,1,6.1.9c7.4,4,14.8,8.3,21.9,12.5l7,4,1.7,1.1c-2.9-17.7-12-28.9-27.9-34C50.7,62.4,32,65.2,14.4,68.6Zm175.1,54.6a63.6,63.6,0,0,1-16.2-2.2c-4.2-1.2-8.2-2.7-12.5-4.3l-6.1-2.2-1.2-.4.7-1.1a159.8,159.8,0,0,1,27.3-34.1c3.4-3.2,7.1-6.3,10.6-9.3l3-2.5c3.9-3.4,2.9-5.6,1.8-6.9-2.4-2.8-5.6-.7-7,.3a180.3,180.3,0,0,0-36.6,38.4,30.4,30.4,0,0,1-1.8,2.5l-2.4,3.3-.5-2a67.7,67.7,0,0,1-2-26.4c2.6-23.3,15.9-40.1,40.6-51.4,20.1-9.1,41-12,58.8-13.6l6.2-.5,3.4-.3h1.2v1.2l-.6,5.7c-.4,4.1-.9,8-1.4,11.9-3.4,23.6-8.3,41-15.9,56.7a114.5,114.5,0,0,1-8.6,14.6Q214,123.2,189.5,123.2Zm-33-10.2,5,1.8c4.3,1.6,8.2,3.1,12.3,4.2,22.7,6.1,41.1-.5,54.7-19.6A101.1,101.1,0,0,0,237,85c7.5-15.4,12.3-32.7,15.7-56,.6-3.9,1-7.8,1.4-11.9.2-1.5.3-3,.5-4.5l-2.3.2-6.1.4c-17.7,1.7-38.4,4.5-58.2,13.5-24,11-36.9,27.3-39.5,49.8a67.2,67.2,0,0,0,1.5,23.6l1.7-2.3a179.8,179.8,0,0,1,37-38.9c3.6-2.8,7.3-2.8,9.7,0s2.9,5.5-2,9.7l-3,2.6c-3.5,2.9-7.2,6-10.5,9.2A158.4,158.4,0,0,0,156.5,113Z" transform="translate(0 0)"></path></svg>