<svg xmlns="http://www.w3.org/2000/svg" fill='#fff' id="Layer_1" data-name="Layer 1" viewBox="0 0 261.8 385"><path d="M4.1,384.5c-2.3-2-4.5-4-3.2-7.5s4.2-3.8,7.4-3.8c7.8.1,15.5.2,23.3,0a13.5,13.5,0,0,0,6.2-1.8c23.1-14.3,46-28.7,69.1-42.8,4.8-2.9,10.3-4.5,15.5-6.3,2.1-.6,2.9-1.3,2.9-3.4-.1-10.4,0-20.8-.1-31.2a6.8,6.8,0,0,0-1.9-4.1c-2.8-3.1-5.9-5.8-8.6-8.9s-3.7-2.6-6.5-1.9c-21.5,4.7-41.7,1.1-60.6-9.8a21.2,21.2,0,0,1-3.5-2.3,5.3,5.3,0,0,1-1-7.4c1.7-2.6,4.2-3,6.9-1.9a16.1,16.1,0,0,1,2.6,1.5,72,72,0,0,0,47.5,10,10.8,10.8,0,0,0,2-.5l-3-3.2L44.7,204.8a16,16,0,0,1-2.5-2.7c-1.9-2.6-1.7-5.2.6-7.4a5.2,5.2,0,0,1,7.2-.3,16.6,16.6,0,0,1,2.7,2.6l54.4,54.3a9.2,9.2,0,0,0,3.7,2.5c.2-5.5.8-11,.4-16.4a72.5,72.5,0,0,0-75-67.2c-3.7.1-7.4,1-11.1,1.2s-5.4,2.3-6,6c-3.3,20.7.8,39.5,12.8,56.6,1.1,1.5,2.3,3.8,1.8,5.3s-2.5,4.2-4.2,4.5a7.9,7.9,0,0,1-5.9-2.6A77.9,77.9,0,0,1,8.8,209.6a83.7,83.7,0,0,1,.6-39.8c1.1-4.4,3.7-7,8.2-8.2,49.4-12.9,98.9,21.1,104.5,71.8a82.6,82.6,0,0,1-1.6,27.6c-.5,2.1-.3,3.7,1.4,5.3s5.8,5.8,8.9,9.1c3.6-3.6,7-6.8,9.9-10.3.8-.9.7-3,.4-4.4-4.7-22.9-.7-44.2,11.8-63.9.8-1.3,2-3.1,3.2-3.3s4.8-.3,6.1.9,1.4,3.9,1.4,6-1.1,2.1-1.8,3.2c-9.5,15.4-13.1,32.1-10.4,50.9,1.4-1.4,2.4-2.2,3.3-3.2L209.1,197a15.8,15.8,0,0,1,3-2.8,5.2,5.2,0,0,1,6.9.5,5.1,5.1,0,0,1,1,6.8,18.1,18.1,0,0,1-2.9,3.3L163,258.9c-1,1-2.1,1.8-3.1,2.7l.3,1c2.9.3,5.8.8,8.6.9,42.6,1.8,78.1-35,74.8-77.5-.2-2.1-.3-4.2-.7-6.3-1.3-7.7-1.3-7.7-9.1-8.8a71.8,71.8,0,0,0-51.7,11.8l-1.9,1.3c-3,1.8-6.1,1.2-7.9-1.5s-1.2-5.8,1.7-7.8a109.2,109.2,0,0,1,12.2-7.3,82,82,0,0,1,58-5.8c4.5,1.2,7.1,3.8,8.2,8.2a84,84,0,0,1-69.7,104.3,80.8,80.8,0,0,1-29.8-1.4c-2.2-.6-3.5.2-5.2,1.5-9.3,6.8-12.9,15.6-11.3,27,.8,5.8.2,11.8.1,17.7,0,2.1.8,2.7,2.8,3.4,5.8,2.1,11.7,3.9,16.8,7.1,22.7,13.7,45,27.8,67.6,41.7a15.5,15.5,0,0,0,7.3,2.1c7.5.2,15,.1,22.5,0,3.2,0,6,.3,7.4,3.8s-.9,5.5-3.2,7.5ZM205,373.1l-1.4-1.2c-18.6-11.5-37-23.2-55.7-34.4-11.6-7-23.6-6.5-35.1.6q-26.1,16-52.1,32.4c-1.2.7-2.2,1.4-3.9,2.6Z" transform="translate(0 0)"></path><path d="M257.8,385H3.8c-2.1-1.7-4.9-4.1-3.3-8.1s4.7-4.1,7.8-4.1h.8c7.4.1,15,.2,22.4,0a12.1,12.1,0,0,0,6-1.8l27-16.7c13.8-8.6,28.1-17.5,42.2-26,4.2-2.6,9-4.2,13.6-5.7l2-.6c1.9-.7,2.5-1.2,2.5-3V305.7c0-5.9,0-12-.1-17.9a6.4,6.4,0,0,0-1.8-3.9,54.4,54.4,0,0,0-4.1-4.2c-1.5-1.5-3.1-3-4.5-4.6s-3.3-2.5-6-1.9c-21.1,4.7-41.6,1.4-61-9.8a26.4,26.4,0,0,1-3.5-2.3,5.8,5.8,0,0,1-1.1-8.1c1.7-2.6,4.4-3.3,7.5-2a7.5,7.5,0,0,1,2,1l.7.5a72.1,72.1,0,0,0,47.1,9.9l.9-.2h.3l-.6-.6-1.9-1.9L44.4,205.2l-.6-.6a14.5,14.5,0,0,1-2.1-2.2c-2-2.9-1.7-5.8.8-8.1s5.1-2.3,7.8-.3a20.9,20.9,0,0,1,2.2,2l.6.6L107.4,251a12.9,12.9,0,0,0,3,2.1c0-1.5.1-3,.2-4.5a83.7,83.7,0,0,0,.1-11.2,72.3,72.3,0,0,0-74.4-66.7,40.7,40.7,0,0,0-6,.6c-1.7.2-3.4.5-5.2.6-3.4.2-4.9,1.7-5.5,5.6-3.3,20.6,1,39.5,12.8,56.2,1.2,1.7,2.3,4.1,1.8,5.8s-2.7,4.5-4.6,4.8a8.4,8.4,0,0,1-6.4-2.8A78.5,78.5,0,0,1,8.3,209.7a84.6,84.6,0,0,1,.6-40,11,11,0,0,1,8.6-8.6,84.3,84.3,0,0,1,105.1,72.3,82.9,82.9,0,0,1-1.6,27.7,4.2,4.2,0,0,0,1.3,4.8c2.1,1.9,4,4,6.1,6.3l2.5,2.5,2.5-2.6c2.5-2.5,4.8-4.8,7-7.3.6-.7.6-2.5.3-4-4.8-22.8-.8-44.5,11.7-64.3,1.1-1.6,2.2-3.3,3.6-3.5s5.1-.3,6.5,1,1.6,4.4,1.6,6.3a3.9,3.9,0,0,1-1.2,2.6l-.7.9c-9.4,15.3-12.8,31.5-10.4,49.6l.6-.5,2-1.9,54.3-54.4.6-.6a17.1,17.1,0,0,1,2.5-2.2,5.5,5.5,0,0,1,7.5.5,5.6,5.6,0,0,1,1.2,7.4,13.4,13.4,0,0,1-2.7,3.1l-.4.4-54,54.1-2.2,1.9a1.8,1.8,0,0,0-.7.5v.5l2.4.3,5.9.5a72,72,0,0,0,74.2-76.9,45,45,0,0,0-.7-6.3c-1.2-7.4-1.2-7.4-8.7-8.4a71.2,71.2,0,0,0-51.3,11.7l-.7.5-1.2.8c-3.3,1.9-6.7,1.3-8.6-1.6a5.6,5.6,0,0,1-1-4.5,6.2,6.2,0,0,1,2.8-4,111.4,111.4,0,0,1,12.3-7.4,83.4,83.4,0,0,1,58.3-5.8,10.9,10.9,0,0,1,8.6,8.6,84.6,84.6,0,0,1-70.2,104.9,79.2,79.2,0,0,1-29.9-1.5c-2.1-.5-3.2.3-4.8,1.5-9.1,6.6-12.7,15.3-11.1,26.6a71.7,71.7,0,0,1,.2,13.1c0,1.5-.1,3-.1,4.6s.6,2.3,2.5,3l2.1.7c5.1,1.8,10.2,3.6,14.8,6.3,13.3,8.1,26.8,16.5,39.8,24.6L224,370.7a15.5,15.5,0,0,0,7,2c6.6.2,13.3.1,19.8.1h2.7c3.2,0,6.4.3,7.8,4.1s-1.2,6.4-3.3,8.1ZM4.3,384H257.5c2.4-2,4.1-3.8,2.9-6.9s-3.9-3.4-6.9-3.4h-2.7c-6.5,0-13.2.1-19.8-.1a15.7,15.7,0,0,1-7.6-2.2l-27.7-17.2-39.8-24.5c-4.5-2.7-9.6-4.5-14.6-6.2l-2.1-.8c-2.2-.7-3.2-1.5-3.2-4s.1-3,.1-4.5a70.5,70.5,0,0,0-.2-13c-1.7-11.6,2.1-20.7,11.5-27.6,1.8-1.3,3.2-2.1,5.6-1.5a79.7,79.7,0,0,0,29.6,1.4,83.4,83.4,0,0,0,69.3-103.7,10.1,10.1,0,0,0-7.8-7.8,82.2,82.2,0,0,0-57.7,5.7,108,108,0,0,0-12.1,7.3,5.3,5.3,0,0,0-2.4,3.4,4.8,4.8,0,0,0,.8,3.8c1.7,2.4,4.5,2.9,7.3,1.3l1.2-.8.6-.5a72.3,72.3,0,0,1,52.1-11.9c8,1.1,8.1,1.3,9.5,9.2.4,2.2.5,4.3.7,6.4a73.1,73.1,0,0,1-75.3,78l-5.9-.5-2.7-.4h-.3l-.6-1.7.3-.2a3.9,3.9,0,0,1,1-.8l2-1.8,54.1-54.1.4-.4a13.7,13.7,0,0,0,2.5-2.9c1.3-2.2,1-4.3-1-6.2a4.6,4.6,0,0,0-6.2-.4,11.5,11.5,0,0,0-2.3,2.1l-.7.6-54.3,54.4-2,1.9-1.4,1.2-.7.7v-1c-2.7-18.7.8-35.5,10.5-51.2l.7-1c.5-.7,1.1-1.4,1-1.9s-.1-4.6-1.3-5.7-3.7-1.1-5.6-.8-2.3,2.2-2.9,3.2c-12.4,19.6-16.3,40.9-11.7,63.5.2.6.7,3.5-.5,4.8a96.3,96.3,0,0,1-7,7.4l-2.9,3-.4.3-.3-.3-2.8-3c-2.1-2.2-4-4.2-6.1-6.2a5.3,5.3,0,0,1-1.6-5.7,81.1,81.1,0,0,0,1.6-27.4A83.2,83.2,0,0,0,17.7,162.1,9.8,9.8,0,0,0,9.9,170a82.1,82.1,0,0,0-.6,39.4A77.6,77.6,0,0,0,24,240.9a7.3,7.3,0,0,0,5.4,2.4c1.5-.2,3.4-2.5,3.9-4.1s-.7-3.4-1.8-4.9c-11.9-17-16.3-36.1-12.9-56.9.5-3.2,1.7-6.2,6.4-6.5l5.2-.6a39.3,39.3,0,0,1,6-.6,73.1,73.1,0,0,1,51.4,18.5,73.7,73.7,0,0,1,24.1,49.1,85.1,85.1,0,0,1-.1,11.3l-.3,5.2v.8l-.6-.3a10.2,10.2,0,0,1-4-2.6L52.4,197.3l-.6-.6a19,19,0,0,0-2.1-1.9c-2.3-1.7-4.5-1.6-6.5.3a4.6,4.6,0,0,0-.6,6.7,18.1,18.1,0,0,0,1.8,2.1l.7.6,54.3,54.4,1.9,1.9,1.7,1.8-.8.3-1,.2a2.3,2.3,0,0,1-1.1.3,72.2,72.2,0,0,1-47.7-10.1l-.7-.4a8.1,8.1,0,0,0-1.8-1c-1.9-.8-4.6-1.1-6.4,1.7s-1.2,4.8,1,6.7a12.7,12.7,0,0,0,3.3,2.2c19.2,11.1,39.5,14.4,60.3,9.8,3-.7,5-.1,6.9,2.1s3,3.1,4.5,4.5l4.2,4.3a7.8,7.8,0,0,1,2,4.5c.1,6,.1,12.1.1,18v13.2c0,2.4-1,3.2-3.2,3.9l-1.9.7c-4.6,1.5-9.4,3-13.5,5.5-14.1,8.6-28.4,17.5-42.1,26l-27,16.8a14.8,14.8,0,0,1-6.5,1.9c-7.5.2-15.1.1-22.5,0H8.3c-3.1,0-5.7.2-6.9,3.4S1.9,382,4.3,384Zm202.1-10.4H55.2l1.3-.9,1.6-1.1,2.3-1.6,13.8-8.5,38.3-23.9c11.9-7.3,24.2-7.5,35.7-.6,13.2,8,26.6,16.4,39.5,24.4l16.2,10.1.7.6.7.6Zm-148-1H203.6l-.3-.2-16.2-10.1c-12.9-8.1-26.2-16.4-39.5-24.4-11.2-6.8-22.9-6.6-34.5.6L74.7,362.3l-13.8,8.6-2.3,1.5C58.6,372.5,58.5,372.5,58.4,372.6Z" transform="translate(0 0)"></path><path d="M93.4.5c1.9,2.1,4.1,4,5.5,6.3,4.4,7.1,8.7,14.3,12.5,21.8a22.6,22.6,0,1,1-41.7,17,21.5,21.5,0,0,1,1.5-17.7C75.6,20,80.1,12.3,84.7,4.6c1-1.7,2.8-2.8,4.2-4.1ZM91.2,15.7c-3.6,6.2-6.9,11.7-10,17.4A11,11,0,0,0,84,47.2,11.3,11.3,0,0,0,101,33C98,27.4,94.8,22,91.2,15.7Z" transform="translate(0 0)"></path><path d="M91.1,61.6a23.4,23.4,0,0,1-9.6-2.1A23,23,0,0,1,69.3,45.8a21.5,21.5,0,0,1,1.5-18.2c4.4-7.9,8.9-15.8,13.5-23.3a11.8,11.8,0,0,1,2.9-3L88.6.1h5l.2.2,1.8,1.9a33.4,33.4,0,0,1,3.8,4.5c4.6,7.6,8.7,14.4,12.4,21.7a22.5,22.5,0,0,1,1,18.3A22.8,22.8,0,0,1,99.9,59.9,24.2,24.2,0,0,1,91.1,61.6ZM89.1,1,87.8,2.1a11.5,11.5,0,0,0-2.7,2.7c-4.5,7.5-9,15.4-13.4,23.3a20.9,20.9,0,0,0-1.5,17.3A22.1,22.1,0,0,0,99.6,58.9a22.3,22.3,0,0,0,12.3-12.7,21.5,21.5,0,0,0-1-17.4c-3.7-7.3-7.8-14.1-12.4-21.7a24.9,24.9,0,0,0-3.6-4.3L93.2,1Zm2.1,49.3a11.7,11.7,0,0,1-7.5-2.7,11.6,11.6,0,0,1-2.9-14.8c2.1-3.9,4.3-7.7,6.7-11.8l3.2-5.6.5-.7.4.7q1.7,3,3.3,5.7c2.3,4,4.5,7.8,6.6,11.6a11.6,11.6,0,0,1-3.1,15.1A11.5,11.5,0,0,1,91.2,50.3Zm0-33.6c-1,1.6-1.9,3.3-2.8,4.8-2.4,4.1-4.6,7.9-6.7,11.8A10.8,10.8,0,0,0,97.8,47a10.7,10.7,0,0,0,2.8-13.8c-2.1-3.8-4.3-7.6-6.6-11.6C93.1,20,92.1,18.4,91.2,16.7Z" transform="translate(0 0)"></path><path d="M172.9.5c1.9,2.1,4.1,4,5.5,6.3,4.3,7.2,8.6,14.4,12.5,21.8A22.3,22.3,0,0,1,185,56a22.7,22.7,0,0,1-27.8.6,22.2,22.2,0,0,1-6.8-28c4.4-8.3,9.2-16.3,14-24.4.9-1.5,2.6-2.5,4-3.7Zm-2.3,15.2c-3.7,6.4-7.1,12-10.2,17.9s-.9,10.5,3.2,13.8a11.3,11.3,0,0,0,13.9.1c4.2-3.2,5.9-9,3.4-13.7S174.4,22.2,170.6,15.7Z" transform="translate(0 0)"></path><path d="M170.6,61.6A23.1,23.1,0,0,1,150,28.3c4-7.7,8.6-15.3,13-22.7l.9-1.6a12.4,12.4,0,0,1,2.8-2.8L168.1.1h5l.2.2,1.8,1.9a26.9,26.9,0,0,1,3.7,4.5c4,6.5,8.5,14,12.5,21.7a22.6,22.6,0,0,1-6,28A23.3,23.3,0,0,1,170.6,61.6ZM168.6,1l-1.3,1a9.9,9.9,0,0,0-2.5,2.5l-1,1.6c-4.4,7.4-8.9,15-12.9,22.7a21.5,21.5,0,0,0,6.6,27.4,21.9,21.9,0,0,0,27.1-.6,21.7,21.7,0,0,0,5.8-26.8c-3.9-7.7-8.5-15.2-12.4-21.7a24.9,24.9,0,0,0-3.6-4.3L172.7,1Zm2,49.3a11.1,11.1,0,0,1-7.3-2.6A11.5,11.5,0,0,1,160,33.3c2.1-4,4.4-7.9,6.9-12.1l3.3-5.8.5-.7.4.7,3.4,5.9c2.4,4.2,4.8,8.2,6.9,12.3a11.7,11.7,0,0,1-3.6,14.3A11.8,11.8,0,0,1,170.6,50.3Zm0-33.6c-.9,1.7-1.9,3.4-2.9,5-2.4,4.2-4.7,8.1-6.8,12.1a10.6,10.6,0,0,0,3,13.2,11,11,0,0,0,13.3.1,10.6,10.6,0,0,0,3.3-13c-2.1-4.1-4.4-8.1-6.9-12.3Z" transform="translate(0 0)"></path><path d="M130.7,172.2c-22.1-.1-36.5-23.8-26.1-43.3,6-11.3,12.6-22.4,19.2-33.4,3.5-6.1,10.7-6.1,14.2-.1,6.5,11.1,13.2,22.1,19.2,33.4C167.6,148.6,153,172.3,130.7,172.2Zm.1-66.5c-5.5,9.5-10.8,18.5-15.9,27.6a18.4,18.4,0,1,0,31.9,0c-4.4-8-9-15.8-13.6-23.7C132.6,108.4,131.8,107.3,130.8,105.7Z" transform="translate(0 0)"></path><path d="M130.9,172.7h-.2a30.2,30.2,0,0,1-25.8-14.8,29.5,29.5,0,0,1-.8-29.2c5.2-9.7,10.8-19.3,16.3-28.5l2.9-5c1.8-3,4.6-4.8,7.6-4.8h0a8.8,8.8,0,0,1,7.5,4.8l2.9,4.8c5.5,9.3,11.2,18.9,16.3,28.6a29.4,29.4,0,0,1-.9,29.5A29.9,29.9,0,0,1,130.9,172.7Zm-.2-1h.2a29.2,29.2,0,0,0,25.9-42.6c-5.2-9.7-10.8-19.3-16.3-28.6l-2.9-4.8c-1.6-2.7-4-4.3-6.7-4.3h0c-2.7,0-5.1,1.6-6.7,4.3l-2.9,5c-5.5,9.2-11.2,18.8-16.3,28.4a29.2,29.2,0,0,0,25.7,42.6Zm.1-10.3a18.9,18.9,0,0,1-16.3-28.3c3.5-6.4,7.1-12.5,10.9-19,1.6-2.9,3.3-5.7,5-8.7l.4-.7.4.7,1,1.5,1.5,2.4c1.2,2.2,2.5,4.4,3.8,6.6,3.2,5.6,6.6,11.4,9.8,17.1,4.5,8.3,2.8,18.1-4.3,24A19.3,19.3,0,0,1,130.8,161.4Zm0-54.7-4.6,7.9c-3.8,6.5-7.3,12.6-10.8,19a17.8,17.8,0,0,0,26.9,22.6c6.9-5.6,8.5-14.8,4.1-22.7-3.2-5.7-6.5-11.5-9.8-17.1l-3.8-6.6a22.2,22.2,0,0,0-1.5-2.3A2.2,2.2,0,0,0,130.8,106.7Z" transform="translate(0 0)"></path><path d="M225.3,132.4c-22.3-.1-36.7-24-26.1-43.6,6-11.2,12.5-22.1,19-33.1,3.6-6.1,10.7-6.1,14.3-.1,6.5,11,13.2,22,19.2,33.4C262.1,108.8,247.5,132.5,225.3,132.4Zm.1-67.1c-6.2,11.1-12.3,21.1-17.3,31.6-3.4,7.2-.1,15.8,6.4,20.6a18.5,18.5,0,0,0,21.7.1c6.6-4.9,9.9-13.7,6.4-21C237.6,86.2,231.5,76.4,225.4,65.3Z" transform="translate(0 0)"></path><path d="M225.4,132.9h-.1A30.1,30.1,0,0,1,199.4,118a29.7,29.7,0,0,1-.7-29.4c5.5-10.1,11.4-20.1,17.1-29.8l2-3.4c1.8-3,4.6-4.8,7.6-4.8h0c3,0,5.7,1.7,7.5,4.7l2.2,3.8c5.8,9.6,11.7,19.6,17,29.7a29.6,29.6,0,0,1-.9,29.5A30,30,0,0,1,225.4,132.9Zm0-81.3h0c-2.7,0-5.1,1.6-6.8,4.4l-1.9,3.3C210.9,69,205,79,199.6,89a29.3,29.3,0,0,0,25.7,42.9h.1a29.1,29.1,0,0,0,25.8-42.7c-5.3-10-11.2-20-16.9-29.6L232,55.8A7.8,7.8,0,0,0,225.4,51.6Zm0,70a19.3,19.3,0,0,1-11.2-3.7c-7-5.2-9.9-14.3-6.6-21.2s7.5-14.3,11.8-21.8c1.8-3.1,3.7-6.4,5.5-9.8l.5-.8.4.8,5.6,9.8c4.2,7.3,8.2,14.3,11.6,21.5s.6,16.3-6.5,21.6A18.9,18.9,0,0,1,225.4,121.6Zm0-55.3-5.2,9.1c-4.2,7.4-8.2,14.4-11.7,21.7s-.4,15.1,6.3,20a18,18,0,0,0,21.1.1c6.8-5,9.4-13.7,6.2-20.4s-7.4-14.1-11.6-21.4C228.8,72.5,227.1,69.4,225.4,66.3Z" transform="translate(0 0)"></path><path d="M36.5,65.8c-1.7,2.9-2.9,5.1-4.3,7.1s-4.9,3.5-7.5,2a5.5,5.5,0,0,1-2.2-7.5,143.3,143.3,0,0,1,7.4-12.6,7.7,7.7,0,0,1,13.2.1c7,11.8,14.1,23.6,20.3,35.8s2.2,26.2-7.8,34.6A29.7,29.7,0,0,1,8,93.9a16.2,16.2,0,0,1,1.1-2.8c1.5-3.2,4.3-4.5,7.3-3.4s3.9,4,3.2,7.4S18,102,18.4,105.3c.8,7.5,5.3,12.6,12.5,14.9s13.7.6,18.8-4.9,6.5-12.2,3.8-19.4a24.9,24.9,0,0,0-2.2-4.3C46.5,83.2,41.6,74.8,36.5,65.8Z" transform="translate(0 0)"></path><path d="M36.5,132.9a30.4,30.4,0,0,1-29-39.1c.4-1.1.7-2,1.1-2.9,1.6-3.5,4.7-4.9,7.9-3.7s4.4,4.1,3.6,8l-.3,1.3a29.3,29.3,0,0,0-.9,8.8c.8,7.1,5,12.1,12.1,14.4A17,17,0,0,0,49.4,115c5.1-5.5,6.3-11.8,3.7-18.9a23.8,23.8,0,0,0-2-3.9l-.2-.4L40,73l-3.6-6.2-1,1.9-2.8,4.5c-2,2.9-5.3,3.8-8.2,2.1a5.9,5.9,0,0,1-2.3-8.1c2.2-4.1,4.6-8.5,7.3-12.7a8.5,8.5,0,0,1,7.3-3.9,8.2,8.2,0,0,1,6.8,4.1L44.9,57c6.5,10.9,13.2,22.1,19,33.5s2.5,26.4-8,35.2A29.7,29.7,0,0,1,36.5,132.9ZM14.4,87.8a5.5,5.5,0,0,0-4.9,3.5,18.3,18.3,0,0,0-1,2.8A29.2,29.2,0,0,0,20.4,127a28.9,28.9,0,0,0,34.9-2.1c10.1-8.5,13.4-22.8,7.7-34S50.5,68.4,44,57.6l-1.4-2.4a7.2,7.2,0,0,0-5.9-3.6,7.4,7.4,0,0,0-6.4,3.5A115.6,115.6,0,0,0,23,67.6a4.8,4.8,0,0,0,1.9,6.8,5,5,0,0,0,6.9-1.8c.9-1.3,1.7-2.8,2.7-4.4L36,65.5l.5-.7,4.4,7.7L51.8,91.3l.2.4a29.9,29.9,0,0,1,2,4c2.8,7.4,1.4,14.3-3.9,19.9s-12,7.4-19.4,5-12-7.7-12.8-15.2c-.4-3,.3-6.1,1-9.1l.2-1.3c.7-3.3-.4-6-2.9-6.9Z" transform="translate(0 0)"></path></svg>