<svg xmlns="http://www.w3.org/2000/svg" fill='#fff' id="Layer_1" data-name="Layer 1" viewBox="0 0 221.3 366.8"><path d="M11.9,268.7c-8.7-.5-7.3,1-7.3-5.6V225.2c0-6.8-1-5.5,7.3-5.5h91c0-7,2-19.7,2-26.5-7.3-.6-16.6-.9-23.8-1.9-45-6.3-77.2-35-80.3-71.9-.4-4.5-.7-9-.8-13.5s-.3-3.1,4.3-3.2c38.3-.8,69.7,10.2,92.5,35.8,2,2.2,6.7,9.6,9.4,11.9,0-3.7-.5-15.5.1-19.2s-2.8-6.8-5.9-9.5c-37-32.5-37.3-80.6-.7-113.3,2.7-2.4,5.3-4.9,8.2-7.2s4.6,0,8.3,2.9c24.5,19.2,34.6,39.1,32,67.1-1.7,17.9-8.9,34.3-24.3,47.1-8.8,7.4-10.1,20.9-8.5,29.9,4.3-4.6,11.3-12.6,16.1-17,19.7-18,44.6-27.4,74.2-28.3,3.7-.1,7.4-.3,11.1-.2s4.2,2.2,4.3,5.8c2.5,50.3-35.2,70.6-73.4,78.4-9.4,1.9-21.3,4.5-31.4,5.7,0,6.2,2,19.9,2,27.1h91.4c7.7,0,6.8-1.2,6.8,5.1v38.3c0,6.6-1.6,5.1-10.3,5.6-1.8,6.5-3.6,16.2-5.3,22.8-6.5,25.1-13,44.1-19.5,69.1-1.2,4.6-.5,6.1-6.2,6.1q-64.6.2-129.2,0c-6,0-5.1-1.5-6.4-6.4-7.9-30.7-15.9-58.3-23.9-89C15.5,270.5,12.2,269.6,11.9,268.7Zm15.5-.1a11.7,11.7,0,0,0,.3,2.3c7.2,27.9,14.6,55.8,21.7,83.8.7,2.6,2,3.1,4.9,3.1q56.3-.2,112.5,0c2.9,0,4.3-.5,4.9-3.1,5.7-22.3,11.5-41.7,17.3-64,1.7-6.3,3.3-15.6,4.9-22.1ZM204.5,229H16.8v30.3H204.5ZM110.7,115.3c38.4-30.4,30.7-79.5-.5-100.9C75.8,41.5,75.9,90.1,110.7,115.3Zm-98.2-3.1c-2.3,38.9,44.8,73.2,90.5,71.2C105.4,145.9,60,110.3,12.5,112.2Zm196.4,0c-48.9-1.7-93.5,34.6-90.7,71.2C161.1,185.2,209.6,154.4,208.9,112.2Z"></path></svg>