<svg xmlns="http://www.w3.org/2000/svg" fill='#fff' id="Layer_1" data-name="Layer 1" viewBox="0 0 512 512"><path d="M109,512c-6.2-5.6-6.3-9.4-.4-15.4,14.7-14.7,29.5-29.3,44.1-44.2,3.8-3.8,7.5-4.6,12.6-2.8,30.2,10.7,60.5,21.5,90.9,31.6,25.7,8.6,50.7,5.6,73.4-8.8,41.3-26.2,82.3-53.1,123.2-80,17.9-11.8,31.9-27.1,39.5-47.6.9-2.7,1.6-5.4,2.6-8.8-10.6.4-20.2-.9-30,5.1-40.2,24.5-81,48.1-121.5,72.1a16.9,16.9,0,0,1-12.8,2.1c-46.6-9.6-93.3-18.9-139.9-28.3-14.3-2.8-23.8-14.3-22.4-27.4S180.6,336,195.6,336H311.1c6.8,0,11.9-2.8,15.1-8.8s2.4-11-1-16.1-8.8-7.2-15.1-7.1H173.6c-13.1,0-26.3.1-39.5,0s-22.6,4.2-31.4,12.9L16,403.4c-6.4,6.4-10.2,6.3-16-.4v-6c7.3-7.5,14.6-15,22-22.4,22.7-22.8,45.5-45.5,68-68.4,12.2-12.3,26.6-18.3,43.9-18.2,59.3.1,118.6,0,177.9,0a31.9,31.9,0,0,1,31.3,24.6c3.4,14.6-3.4,29.7-17,35.9a38.9,38.9,0,0,1-15.8,3.3c-37.2.3-74.3.2-111.5.2h-4c-5.7.2-9.5,3.3-10.1,8.4s2.4,9.4,8.2,10.6c14.5,3.1,29,5.9,43.5,8.9,31.3,6.3,62.6,12.6,94,18.7a12.8,12.8,0,0,0,8.3-1.7l125.4-73.4c3-1.8,7-1.9,10-3.7s3.5-4.3,4.6-7c-10.4-.4-20.2-2.5-29.4,4.3s-17.9,10.9-26.9,16.3c-5.4,3.2-10.1,2.5-12.6-1.8s-.9-8.6,4.6-11.9l35.1-21.1a5.9,5.9,0,0,1,1.7-1c10.3-1.5,8.7-10.6,11.6-17.4-11.3-.5-21.8-1.3-31.4,6-7.8,5.9-16.7,10.3-25.2,15.3-5.1,3-9.7,2.4-12.2-1.6s-1.2-8.8,4.1-12c11.7-7.1,23.3-14.2,35.1-21a22.6,22.6,0,0,1,9.8-2.8c9.2-.3,18.4-.2,27.5-.1,6.9.1,10.3,3.6,9.2,10.5s-2.7,14-4.3,21.5h11c7,.1,10.1,3.5,9.4,10.4-.4,4.5-1.3,8.8-2.1,13.4,6.5.8,13.9-1.9,18.3,5.2v9l-2.6,9.5c-7.9,27.1-25.2,47-48.2,62.2q-60.6,40.2-121.8,79.4c-27.8,17.9-58,21.6-89.5,11.1-27.9-9.3-55.5-19.4-83.3-29.3-2.7-1-4.7-1.2-7,1.2-14.4,14.7-29,29.3-43.6,43.9Z"></path><path d="M155,0c8.5,3.2,16.8,7,25.5,9.5q26.4,7.5,53.1,13.9c6.2,1.5,13,.6,19.2,2.2,26.8,6.8,44.9,23.6,55.2,49a38.4,38.4,0,0,1,1.4,4l.9-.2c11.9-23.1,33.6-32.6,56.5-40.4,13.4-4.7,27.2-7.7,41.6-7.1a40.5,40.5,0,0,1,4.9.4c9.9,1.5,11.3,4.2,10,14.2-2.8,20.4-5.3,40.9-7.2,61.5-1.7,17.3-9.5,30.6-24,39.9s-32.8,13.9-51,12.9-27.5-11.4-34-26.4c-.8-2-1.5-4-2.3-6.1-3.5,4.7-6.8,9.5-10.4,13.9-5.1,6.2-11.1,10.3-19.6,11.4-19.1,2.5-38,5.8-57.1.9-34.3-8.7-55.8-30.9-66.7-64-8.7-26.5-10.1-53.9-6.9-81.4.3-2.9,3.2-5.4,4.9-8.1Zm4.1,19.3c-1,18.6-.2,36.5,4,54.1,8.2,34.5,26.9,62.3,70.8,66.1,9.6.8,19.3-.1,29-.2a15.5,15.5,0,0,0-3.3-5.7q-27.9-31-55.6-62.2a14.4,14.4,0,0,1-3.1-3.9c-2-3.6-1.5-7.1,1.7-9.9s6.5-2.5,9.7-.3a27.9,27.9,0,0,1,3.9,3.8l61.4,68.4a22.5,22.5,0,0,1,2.4,3.6c10.9-9.9,17.4-26.9,15.8-39.7-3.6-28.2-25.3-50.4-53.5-53-20.3-1.8-39.6-7-58.8-13.1C175.5,24.8,167.5,22.1,159.1,19.3ZM338.8,142.6a15,15,0,0,0,1.4,1,10.1,10.1,0,0,0,2.5.3c12.5.2,24.5-1.9,35.7-7.6,13.9-7.1,21.2-18,21.9-34.2s2.9-29.7,4.5-44.6c.4-3.4.9-6.7,1.5-10.5-25.1,1.5-48,7.4-67.6,22.1-15.6,11.6-21.5,28.3-19.5,47.6.6,5.9,2.3,11.6,6.5,16.6l6.4-8.8c9.4-13.1,18.7-26.3,28.2-39.4,3.4-4.7,8.1-5.8,12-2.9s4.1,7.5.8,12.3l-3.4,4.9C359.4,113.7,349.2,128.1,338.8,142.6Z"></path><path d="M244.1,239.8c25.3.6,43.2,8.8,56.7,25.7,1.8,2.2,3.1,5.9,2.5,8.5s-3.7,5.4-5.9,5.5-6.5-1.6-8.4-3.8c-8.9-10.2-19.5-17-33-18.9-18.9-2.8-34.7,3.4-47.5,17.4l-1.9,2.3c-3.4,3.9-7.8,4.6-11.4,1.8s-4.2-7.5-.9-11.9c8-10.5,18.2-18.2,30.6-22.2C232.3,241.8,240.1,240.7,244.1,239.8Z"></path><path d="M312,200.2v38c0,6.2-3.2,9.9-8.2,9.8s-7.8-3.7-7.8-9.7V161.8c0-6.2,3.2-9.9,8.2-9.8s7.8,3.7,7.8,9.7Z"></path><path d="M324.2,256.1c18.2,1.3,32.9,11.3,44.5,26.4a63,63,0,0,1,5.7,8.8c2.7,4.7,1.5,9.3-2.6,11.6s-7.9.8-11-3.4-8.1-11.1-12.9-15.8a38.9,38.9,0,0,0-25.8-11.6c-6.7-.5-10.3-3.4-10.1-8.4S316.1,255.8,324.2,256.1Z"></path><path d="M365.5,308c16,.4,30.2,14.7,30.5,30.7,0,5.4-3,9.1-7.7,9.3s-7.7-3-8.3-8.2c-1.1-9.6-6.2-14.8-15.5-15.8-5.5-.6-8.8-3.9-8.4-8.5S360.1,307.9,365.5,308Z"></path></svg>