<svg xmlns="http://www.w3.org/2000/svg" id="Layer_1" data-name="Layer 1" viewBox="0 0 430.9 439.6"><path d="M0,321.3c27.8-2.1,46.9-1.1,64.9,23.3,15.5-24,39.1-25.6,64.3-23.5,1.8,23.7,1,46.3-20.5,62.2a51.1,51.1,0,0,1-28.9,9.9H72.7v31H206.9V393.7c-4-.4-8.3-.4-12.5-1.1-24.5-3.9-41.8-22.1-43.8-46.8-.7-8.1-.1-16.3-.1-24.4,25.1-2,45.5-2.5,65,22.9,15.5-23.7,38.9-25.3,63.7-23.2,7.2,28-5.7,57.3-30,67.8a57.5,57.5,0,0,1-12.9,3.6c-4.2.8-8.6.8-13.1,1.2v30.5H357.5V394.6c-8.2-1.6-16.4-2.1-23.6-4.9-20-7.7-31.2-22.8-32.9-44.3-.6-7.9-.1-15.9-.1-23.8,22-6.7,45.5,1.5,64.8,22.6,7-10.1,16-18.4,28.1-20.9s23.7-2.5,35.4-3.7c4.2,31.7-1.7,61.9-38.5,72.2-5.4,1.5-11.2,1.4-17.2,2.1v30.5h53.9v15.2H2.9V424.5H56.8V394.6c-8.2-1.7-16.4-2.4-24-5C13.2,382.6.5,363.9.1,343.1-.1,335.8,0,328.5,0,321.3Zm56.8,56.1c3.5-27.5-21.1-45.1-41.1-40.5C12.7,361.1,33,381.3,56.8,377.4Zm316.7.1c27.5,3.4,45.1-21,40.7-41C389.2,333.9,371.2,351.9,373.5,377.5ZM113.7,336.4c-28.5-3.2-45.2,22.3-40.3,41.1C97,381,116.9,360.8,113.7,336.4ZM357,377.5c5.3-22.9-17.7-45.9-40.5-40.7C313.8,361.3,333.7,381.3,357,377.5ZM166.3,336.7c-4.1,23.9,17.5,44.7,40.6,40.6C211,352.2,188.4,332.5,166.3,336.7Zm97.9,0c-26-4.2-45.9,20.1-40.3,41C248.4,379.9,266.4,361.7,264.2,336.7Z"></path><path d="M182.1,160.1c-1.1-1.9-1.8-3.3-2.7-4.7-7.4-11.9-14.8-23.7-22.1-35.6-8.6-13.8-6-27.4,7.1-36.9L270,6.4c14-10.1,27.7-8.2,38.6,5.3l2.6,2.8c38.4-24.5,80.2-10.1,101,15.6,27,33.3,24.3,76.9-4.9,105.2,4.2,5.3,8.5,10.6,12.6,16,11.8,15.1,9.3,34-6.1,45.2q-57.9,42.1-116.2,84.1c-16.2,11.7-35.1,7.8-45.7-9s-20.6-32.8-30.7-49.3c-2-3.3-3.9-4.7-8.2-4.2-24,2.7-48,4.9-72,7.5a15.6,15.6,0,0,0-6.8,2.8c-5.5,4-10.8,8.4-16.3,12.4-10.5,7.8-23.5,2.8-25.2-10.1q-3.6-29.5-6.1-59.1c-.9-10.5,9.2-18.3,19.4-15.3a143.3,143.3,0,0,1,15.5,5.6,33.5,33.5,0,0,0,18.3,2.6C153.7,162.6,167.6,161.6,182.1,160.1Zm-1.3-31.7,2.7,4.4,80.3,128.8c7.2,11.6,15.6,13.3,26.6,5.4l112.9-81.7c10.2-7.5,11.4-16.1,3.4-26l-62-77.7L308.4,36Zm216.3-5.8c23.5-18.1,24.4-56.3,2.2-83.7s-59.5-26.3-78-11.4Zm-224.4-7.3,125.7-91c-5.7-9.4-11.2-11.3-18.4-6.1Q226.3,56.9,172.8,95.8c-5.5,4-6.4,9-3,14.9C170.6,112.1,171.5,113.5,172.7,115.3Zm-35.2,64.8c1.1,10.5,2.1,20.1,3.2,30.1l68.5-7.1c-5.9-9.4-11.3-18.3-17-27-.6-.9-2.6-1.2-3.9-1.1-4.8.3-9.6.8-14.4,1.3ZM101.8,171c2.1,19.5,4,38.4,6.1,58.1,5.6-4.2,10.3-7.6,14.7-11.3a7.1,7.1,0,0,0,1.5-4.8c-1-10.7-2-21.5-3.3-32.2a4.6,4.6,0,0,0-2.1-3.5C113.4,175.1,107.9,173.2,101.8,171Z"></path><path d="M72,229.3a7.9,7.9,0,0,1,7.9,7.9c0,4.8-4,9.2-8.6,9.4s-7.9-3.2-7.9-7.2S68,229.4,72,229.3Z"></path><path d="M59.7,280.2a7.5,7.5,0,0,1-7.7-7.5c0-5.8,3.3-10.2,8-10.2a8.1,8.1,0,0,1,7.8,8.1C67.9,275.9,64.2,280.2,59.7,280.2Z"></path><path d="M48.8,305.9c0-4.9,3-8,7.6-7.9s7.6,3.5,7.6,8.1-3.4,8.4-8,8.2S48.7,310.8,48.8,305.9Z"></path><path d="M35.5,208.1a7.6,7.6,0,0,1,7.8,7.3,8.2,8.2,0,0,1-7.8,8.6,7.9,7.9,0,0,1-7.9-7.3C27.4,212.5,31.5,208.2,35.5,208.1Z"></path><path d="M59.5,202.6a7.6,7.6,0,0,1-7.9-7.7c0-4.2,4.3-7.9,8.7-7.8a7.6,7.6,0,0,1,7.3,7.8C67.6,199.2,64,202.5,59.5,202.6Z"></path><path d="M20.4,236.3a7.6,7.6,0,0,1,7.8,7.8,8.1,8.1,0,0,1-7.6,8.2,7.3,7.3,0,0,1-7.7-7.3C12.8,240.1,16,236.3,20.4,236.3Z"></path><path d="M23,276.1a7.5,7.5,0,0,1-7.7,7.4c-4.5,0-7.6-3.3-7.5-8s3.1-7.5,7.5-7.4A7.8,7.8,0,0,1,23,276.1Z"></path></svg>