<svg xmlns="http://www.w3.org/2000/svg" id="Layer_1" data-name="Layer 1" viewBox="0 0 512 480.1"><path d="M0,134.1c2.5-9.7,6.5-18.6,14.6-24.9,12.8-9.9,27-12.2,41.8-5.5s23.2,19.4,23.5,36c.4,24.8.1,49.6.1,74.5V220c14.6.1,25.1,7.5,34.1,17.6,1.5,1.6,3.2,3,4.6,4.7,20,24.3,47.5,33.9,77.2,38.6,27.5,4.3,49.5,27.8,49.9,55.6.5,44.3.2,88.6.2,132.9,0,6.7-4.1,10.6-10.7,10.7H130.8c-6.8,0-10.7-4.1-10.8-11-.1-16.2-.1-32.4.1-48.5,0-3.4-1.1-5-4-6.4q-21.3-10.3-42.5-21.1C31.6,371.5,7.2,337.4.9,290.4c-.2-1.1-.6-2.2-.9-3.3ZM225.7,459.8a17.7,17.7,0,0,0,.3-2.1c0-40,.2-79.9-.1-119.9-.2-18.1-14-33.3-31.7-36.9-10.5-2.2-21.1-4.7-31.4-7.8-21.1-6.3-40-16.3-54.8-33.2a148.7,148.7,0,0,0-14.9-14.8,19.8,19.8,0,0,0-32.7,11.2c-1.5,7.5,1.2,13.7,6.5,19C83.3,291.7,99.7,308,116,324.5c5,4.9,5.3,10.7,1.1,15s-10.3,3.9-15.1-.9c-16.7-16.7-33.6-33.3-50.1-50.2S36.5,242.5,57,227.2a7.9,7.9,0,0,0,2.9-5.5q.3-40.5.1-81c-.1-11.8-8.7-20.6-19.9-20.6S20,128.9,20,140.6c0,45.6-.7,91.3.2,137,.9,42.3,20.7,74.4,57.8,95,17.7,9.9,36.1,18.4,54.3,27.4,5.5,2.7,7.9,6.5,7.8,12.6-.3,14-.1,28-.1,42v5.2Z"></path><path d="M512,287.1c-1.7,8.1-2.7,16.4-5.2,24.2a214.5,214.5,0,0,1-10.1,25.5c-2.7,6-8.4,7.9-13.6,5.3s-7.2-8.2-4.2-14c10.1-19.2,13.4-39.7,13.2-61.3-.4-42,0-84-.1-126-.1-14.4-13-24-26.2-19.7a19.5,19.5,0,0,0-13.7,18.4c-.2,27.7-.1,55.3,0,83a6.6,6.6,0,0,0,2.3,4.4c21.7,16.6,23.7,43.5,4.5,62.8q-24,24.2-48.1,48.1a15.6,15.6,0,0,1-5.6,4,9.2,9.2,0,0,1-11.1-3.3c-2.9-4-2.8-8.1.1-12a29.8,29.8,0,0,1,3.4-3.7c15.8-15.8,31.6-31.5,47.3-47.4,9-9,9.4-21.1,1.3-29.4s-20.4-7.8-29.4,1c-3.8,3.7-7.8,7.3-11.3,11.3-19.2,22.5-44.8,33.3-72.8,39.7-5,1.2-10.1,2-15.2,3-17.4,3.4-31.2,18.7-31.3,36.5-.4,40.3-.1,80.7-.1,121a5.3,5.3,0,0,0,.3,1.3H372V411.4c0-4.9,1.8-8.3,6.2-10.5,12.3-6.2,24.6-12.5,37-18.6,5.6-2.7,11.2-1,13.8,4s.9,10.8-4.8,13.8q-13.9,7.3-28.2,14.1c-3.2,1.5-4.1,3.4-4.1,6.8.2,15.7.1,31.3.1,47,0,8.5-3.7,12.1-12.3,12.1H278.3c-8.6,0-12.3-3.6-12.3-12.1,0-42.7-.1-85.3,0-128,.2-30.6,20.9-53.9,51-59.3,12.4-2.2,24.6-6,36.5-10a76.5,76.5,0,0,0,32.4-21c5-5.4,10.5-10.3,15.5-15.6A42.1,42.1,0,0,1,432,220v-5.3c0-25.2-.2-50.4.1-75.5A39.7,39.7,0,0,1,463.6,101c18.7-3.8,37.2,5.5,44.8,22.8,1.5,3.3,2.4,6.8,3.6,10.3Z"></path><path d="M266,200.1v28.2c-.1,7.2-4,11.8-10.1,11.7s-9.9-4.6-9.9-11.9v-68h-6.6c-17.1-.7-34.5.4-51.3-2.3-45.3-7.3-80.7-49-82-94.8-.4-17.4-.1-34.7-.1-52,0-4.6,1.8-8.1,6.1-10s7.9-.9,11,2.1c12.7,12.2,28,16.7,45.4,17.2,28.5.9,52.4,12.7,71.6,33.8l5.9,6.8V11.6C246,4.7,249.9.2,255.8.1S266,4.6,266,11.8v88.8c1.5-1.6,2.5-2.5,3.4-3.6,20.2-23.7,46-36.2,77.2-36.9,15.9-.3,29.7-5.2,41.3-16.2,3.5-3.3,7.4-5.1,12.2-2.9s6,6.2,5.9,11.1c-.4,20,.6,40.1-1.2,60-4,43.7-43.2,82.6-86.9,86.8-14.9,1.5-30,.9-45,1.2Zm-20.4-70.3c4.2-47.8-32.7-89-79.6-89.7-13.2-.2-25.8-2.7-37.6-8.7-.6-.4-1.4-.4-3.1-.7.7,14.7,0,29,2.4,42.8,6.7,38.6,41.8,72.7,97.1,66a50.3,50.3,0,0,0-3.9-3.2L171,98.8c-5.5-4.2-6.5-10-2.9-14.8s9.2-5.2,14.7-1.3L196,92.5Zm20.7,39.9c1.8-1.3,3.2-2.2,4.4-3.2l37.6-28.2c7.3-5.5,14.6-11.1,22.1-16.3a9.4,9.4,0,0,1,13.6,2.3c3.2,4.3,2.5,9.7-1.7,13.4a37.9,37.9,0,0,1-3.9,3.1l-48,36-3.7,3.3h18.6a82.2,82.2,0,0,0,75.8-53.9c6.7-18,4.4-36.7,4.9-55.7-1.7.7-2.9,1.1-4.1,1.7a79,79,0,0,1-33.7,7.9C299.1,80.8,263.2,119.7,266.3,169.7Z"></path><path d="M458.8,378.1a10,10,0,1,1,10.2-9.6A10.2,10.2,0,0,1,458.8,378.1Z"></path></svg>